<svg width="33" height="27" viewBox="0 0 33 27" fill="none" xmlns="http://www.w3.org/2000/svg">
<path d="M21.192 9.20831H26.6766V12.2553H21.192V9.20831Z" fill="white"/>
<path d="M6.44446 14.0828H11.929V17.1298H6.44446V14.0828Z" fill="white"/>
<path d="M6.44446 9.20831H11.929V12.2553H6.44446V9.20831Z" fill="white"/>
<path d="M13.7577 10.4269H19.3641V15.9115H13.7577V10.4269Z" fill="white"/>
<path d="M21.192 14.0828H26.6766V17.1298H21.192V14.0828Z" fill="white"/>
<path d="M12.8431 7.37988C13.3479 7.37988 13.7572 7.78915 13.7572 8.29397V8.59867H15.6463V6.46579C15.6463 6.22331 15.7426 5.99083 15.9141 5.81946L16.1818 5.5517H6.44446V7.37988H12.8431Z" fill="white"/>
<path d="M17.4745 6.8444V8.59867H19.3636V8.29397C19.3636 7.78915 19.7729 7.37988 20.2777 7.37988H26.6763V5.5517H18.7672L17.4745 6.8444Z" fill="white"/>
<path d="M20.2783 18.9582C19.7734 18.9582 19.3642 18.549 19.3642 18.0441V17.7394H17.475V19.8723C17.475 20.1148 17.3788 20.3473 17.2073 20.5186L16.9396 20.7864H26.6769V18.9582H20.2783Z" fill="white"/>
<path d="M15.6463 19.4937V17.7394H13.7572V18.0441C13.7572 18.549 13.3479 18.9582 12.8431 18.9582H6.44446V20.7864H14.3536L15.6463 19.4937Z" fill="white"/>
<path d="M27.5911 0.0679321H5.53103C3.01088 0.0679321 0.960571 2.11824 0.960571 4.63839V21.7014C0.960571 24.2216 3.01088 26.2719 5.53103 26.2719H27.5911C30.1112 26.2719 32.1615 24.2216 32.1615 21.7014V4.63839C32.1615 2.11824 30.1112 0.0679321 27.5911 0.0679321ZM28.5052 21.7014C28.5052 22.2062 28.0959 22.6155 27.5911 22.6155H5.53103C5.02621 22.6155 4.61694 22.2062 4.61694 21.7014V4.63839C4.61694 4.13357 5.02621 3.7243 5.53103 3.7243H27.5911C28.0959 3.7243 28.5052 4.13357 28.5052 4.63839V21.7014Z" fill="white"/>
</svg>
