<svg width="33" height="27" viewBox="0 0 33 27" fill="none" xmlns="http://www.w3.org/2000/svg">
<path d="M21.504 9.52035H26.3646V11.9433H21.504V9.52035Z" stroke="#6B7280" stroke-width="0.62402"/>
<path d="M6.75647 14.3948H11.617V16.8178H6.75647V14.3948Z" stroke="#6B7280" stroke-width="0.62402"/>
<path d="M6.75647 9.52035H11.617V11.9433H6.75647V9.52035Z" stroke="#6B7280" stroke-width="0.62402"/>
<path d="M14.0697 10.739H19.0521V15.5995H14.0697V10.739Z" stroke="#6B7280" stroke-width="0.62402"/>
<path d="M21.504 14.3948H26.3646V16.8178H21.504V14.3948Z" stroke="#6B7280" stroke-width="0.62402"/>
<path d="M15.4923 5.86371C15.3896 6.04588 15.3343 6.25298 15.3343 6.46579V8.28666H14.0692C14.0652 7.61288 13.5178 7.06787 12.8431 7.06787H6.75647V5.86371H15.4923Z" stroke="#6B7280" stroke-width="0.62402"/>
<path d="M19.0516 8.28666H17.7865V6.97364L18.8964 5.86371H26.3643V7.06787H20.2777C19.603 7.06787 19.0556 7.61288 19.0516 8.28666Z" stroke="#6B7280" stroke-width="0.62402"/>
<path d="M17.6291 20.4744C17.7318 20.2923 17.7871 20.0852 17.7871 19.8724V18.0515H19.0522C19.0561 18.7253 19.6036 19.2703 20.2783 19.2703H26.3649V20.4744H17.6291Z" stroke="#6B7280" stroke-width="0.62402"/>
<path d="M14.0692 18.0515H15.3343V19.3645L14.2244 20.4744H6.75647V19.2703H12.8431C13.5178 19.2703 14.0652 18.7253 14.0692 18.0515Z" stroke="#6B7280" stroke-width="0.62402"/>
<path d="M5.53103 0.379942H27.5911C29.9389 0.379942 31.8495 2.29056 31.8495 4.63839V21.7014C31.8495 24.0493 29.9389 25.9599 27.5911 25.9599H5.53103C3.1832 25.9599 1.27258 24.0493 1.27258 21.7014V4.63839C1.27258 2.29056 3.1832 0.379942 5.53103 0.379942ZM27.5911 22.9275C28.2682 22.9275 28.8172 22.3786 28.8172 21.7014V4.63839C28.8172 3.96125 28.2682 3.41229 27.5911 3.41229H5.53103C4.85389 3.41229 4.30493 3.96125 4.30493 4.63839V21.7014C4.30493 22.3786 4.85389 22.9275 5.53103 22.9275H27.5911Z" stroke="#6B7280" stroke-width="0.62402"/>
</svg>
