<svg width="24" height="24" viewBox="0 0 24 24" fill="none" xmlns="http://www.w3.org/2000/svg">
<path d="M21.0001 4.5H3.00006C2.60238 4.50045 2.22111 4.65864 1.9399 4.93984C1.6587 5.22105 1.50052 5.60231 1.50006 6V9.06903C1.50002 9.07269 1.49951 9.07626 1.49951 9.07993C1.49951 9.08359 1.50002 9.08716 1.50006 9.09082V18C1.50052 18.3977 1.6587 18.779 1.9399 19.0602C2.22111 19.3414 2.60238 19.4995 3.00006 19.5H21.0001C21.3977 19.4995 21.779 19.3414 22.0602 19.0602C22.3414 18.779 22.4996 18.3977 22.5001 18V6C22.4996 5.60231 22.3414 5.22105 22.0602 4.93984C21.779 4.65864 21.3977 4.50045 21.0001 4.5ZM12.7495 16.5H11.2495C11.0506 16.5 10.8598 16.421 10.7192 16.2803C10.5785 16.1397 10.4995 15.9489 10.4995 15.75C10.4995 15.5511 10.5785 15.3603 10.7192 15.2197C10.8598 15.079 11.0506 15 11.2495 15H12.7495C12.9484 15 13.1392 15.079 13.2798 15.2197C13.4205 15.3603 13.4995 15.5511 13.4995 15.75C13.4995 15.9489 13.4205 16.1397 13.2798 16.2803C13.1392 16.421 12.9484 16.5 12.7495 16.5ZM18.7495 16.5H15.7495C15.5506 16.5 15.3598 16.421 15.2192 16.2803C15.0785 16.1397 14.9995 15.9489 14.9995 15.75C14.9995 15.5511 15.0785 15.3603 15.2192 15.2197C15.3598 15.079 15.5506 15 15.7495 15H18.7495C18.9484 15 19.1392 15.079 19.2798 15.2197C19.4205 15.3603 19.4995 15.5511 19.4995 15.75C19.4995 15.9489 19.4205 16.1397 19.2798 16.2803C19.1392 16.421 18.9484 16.5 18.7495 16.5ZM3.00006 8.32993V6H21.0001L21.0002 8.32993H3.00006Z" fill="#BEC6CC"/>
</svg>
