<svg width="19" height="25" viewBox="0 0 19 25" fill="none" xmlns="http://www.w3.org/2000/svg">
<path fill-rule="evenodd" clip-rule="evenodd" d="M1.63142 2.28486C0.685477 2.46223 0 3.28818 0 4.25061V19.0292C0 19.9469 0.624594 20.7469 1.51493 20.9695L13.5149 23.9695C14.7772 24.2851 16 23.3303 16 22.0292V2.00061C16 0.748332 14.8622 -0.195916 13.6314 0.0348638L1.63142 2.28486ZM12.5 14.5908C13.3284 14.5908 14 13.9192 14 13.0908C14 12.2623 13.3284 11.5908 12.5 11.5908C11.6716 11.5908 11 12.2623 11 13.0908C11 13.9192 11.6716 14.5908 12.5 14.5908Z" fill="white"/>
<path d="M17 4.59082C18.1046 4.59082 19 5.48625 19 6.59082V16.5908C19 17.6954 18.1046 18.5908 17 18.5908V4.59082Z" fill="white"/>
</svg>
