<svg width="24" height="24" viewBox="0 0 24 24" fill="none" xmlns="http://www.w3.org/2000/svg">
<path d="M21.6847 5.19547L21.6847 5.19539L21.6847 5.19547ZM21.6847 5.19547C21.6857 5.20815 21.6863 5.22084 21.6866 5.23356C21.6867 5.23788 21.687 5.24209 21.6872 5.24462L21.6873 5.2455L21.6875 5.25V17.9999C21.6871 18.3811 21.5355 18.7465 21.266 19.016C20.9965 19.2855 20.6311 19.4371 20.2499 19.4375H3.75007C3.36894 19.4371 3.00354 19.2855 2.73404 19.016C2.46453 18.7465 2.31294 18.3811 2.3125 17.9999L2.3125 5.25L2.31275 5.24549C2.31276 5.24525 2.31278 5.24498 2.31281 5.24469C2.31299 5.24216 2.3133 5.2379 2.3134 5.23353L2.3134 5.2335C2.31368 5.22084 2.31432 5.20819 2.31532 5.19552L2.31534 5.19529C2.31612 5.18501 2.31713 5.17479 2.31839 5.16463L2.25636 5.15696C2.25499 5.1681 2.25387 5.17931 2.25302 5.19058L21.6847 5.19547ZM21.75 18C21.7495 18.3977 21.5914 18.779 21.3102 19.0602C21.029 19.3414 20.6477 19.4995 20.25 19.5L21.75 18ZM21.75 18V5.25C21.75 5.24668 21.7498 5.24343 21.7495 5.24018C21.7493 5.23751 21.7491 5.23483 21.7491 5.23212C21.7488 5.21825 21.7481 5.20441 21.747 5.19058M21.75 18L21.747 5.19058M2.26913 5.08365L2.33012 5.09733C2.32781 5.1076 2.32575 5.11817 2.32381 5.12913L2.3238 5.12916C2.32166 5.1412 2.31983 5.15297 2.31839 5.16461L2.33868 5.06415L2.27852 5.04723M2.26913 5.08365C2.27193 5.07142 2.27513 5.05932 2.27852 5.04723M2.26913 5.08365L2.33006 5.09757C2.33255 5.08669 2.33546 5.07564 2.3387 5.0641M2.26913 5.08365C2.26657 5.09507 2.26433 5.1066 2.26227 5.11823L2.3387 5.0641M2.27852 5.04723C2.28177 5.03567 2.28511 5.02423 2.28886 5.01292M2.27852 5.04723L2.3387 5.0641M2.28886 5.01292L2.34818 5.03259C2.34489 5.04254 2.34185 5.05289 2.3387 5.0641M2.28886 5.01292L2.34816 5.03268C2.3516 5.02235 2.35555 5.01187 2.35996 5.00056L2.36002 5.00041C2.36412 4.98979 2.36816 4.97981 2.3724 4.97026L2.31528 4.9449M2.28886 5.01292L2.31528 4.9449M2.28886 5.01292C2.2928 5.00111 2.29719 4.98948 2.30173 4.97786C2.30603 4.96673 2.31047 4.95572 2.31528 4.9449M2.28886 5.01292L2.43517 4.75765C2.42642 4.7677 2.41791 4.77791 2.40967 4.78841M2.31528 4.9449L2.37231 4.97045C2.37684 4.96033 2.38187 4.95011 2.38738 4.93922L2.33162 4.911M2.31528 4.9449L2.48231 4.79868C2.47414 4.80807 2.46632 4.81746 2.45884 4.82699L2.40967 4.78841M2.31528 4.9449C2.3204 4.93345 2.32594 4.92221 2.33162 4.911M2.33162 4.911C2.33702 4.90036 2.34256 4.88983 2.34842 4.87948M2.33162 4.911L2.38735 4.93928C2.39249 4.92916 2.39756 4.91953 2.4028 4.91028L2.34842 4.87948M2.34842 4.87948L2.40262 4.91059C2.40815 4.90096 2.41409 4.89129 2.42042 4.88131L2.36764 4.84783M2.34842 4.87948C2.35455 4.86879 2.36101 4.85829 2.36764 4.84783M2.36764 4.84783C2.37437 4.83728 2.38128 4.82693 2.38852 4.81675C2.39529 4.80716 2.40239 4.79775 2.40967 4.78841M2.36764 4.84783L2.42034 4.88144C2.42659 4.87163 2.43293 4.86215 2.43948 4.85293L2.43956 4.85282C2.4456 4.84426 2.45208 4.83567 2.45896 4.82683L2.40967 4.78841M2.59945 4.61669C2.59824 4.61745 2.59703 4.61822 2.59582 4.61899C2.58786 4.62403 2.57988 4.62909 2.57217 4.63447L2.49313 4.78551C2.49313 4.78551 2.49314 4.7855 2.49316 4.78547L2.49328 4.78535L2.49375 4.78487L2.49575 4.78296C2.49588 4.78283 2.49602 4.7827 2.49618 4.78255C2.49785 4.78097 2.50085 4.77813 2.50381 4.77501L2.45842 4.73204L2.50353 4.7753C2.51161 4.76688 2.5201 4.75858 2.52906 4.75014C2.53797 4.74175 2.54594 4.73435 2.55394 4.72752L2.55399 4.72748C2.56163 4.72094 2.56977 4.71453 2.57891 4.70745L2.57891 4.70745L2.57907 4.70732C2.58942 4.69926 2.5986 4.6922 2.60779 4.68582L2.60779 4.68582L2.60797 4.6857C2.61443 4.68119 2.62111 4.67695 2.62917 4.67185C2.63038 4.67108 2.63163 4.67029 2.63291 4.66947M2.59945 4.61669L2.63291 4.66947M2.59945 4.61669C2.6109 4.60943 2.62234 4.60222 2.63406 4.59565L2.63295 4.66945L2.59945 4.61669ZM2.63291 4.66947C2.64446 4.66216 2.65456 4.65581 2.6646 4.65018L2.63291 4.66947ZM21.747 5.19058C21.7461 5.1793 21.745 5.16809 21.7436 5.15696L21.747 5.19058ZM21.6762 5.12917L21.6762 5.12915C21.6743 5.11825 21.6722 5.10775 21.6699 5.09757C21.6675 5.08671 21.6645 5.07568 21.6613 5.06415L21.6762 5.12917ZM21.6762 5.12917C21.6783 5.14118 21.6802 5.15292 21.6816 5.16453L21.6762 5.12917ZM21.64 5.00056L21.64 5.00041L21.64 5.00056ZM21.64 5.00056C21.6444 5.01184 21.6484 5.0223 21.6518 5.03261L21.64 5.00056ZM21.2767 4.62093L21.2765 4.62087C21.2681 4.61715 21.2594 4.61383 21.2489 4.60984L21.2453 4.60843L21.2452 4.60842L21.2417 4.60707C21.2317 4.60323 21.2233 4.60004 21.2149 4.59728L21.2148 4.59724C21.2051 4.59405 21.1951 4.59131 21.1833 4.58806L21.1811 4.58747L21.181 4.58743L21.1789 4.58688C21.1683 4.58399 21.1594 4.58157 21.1505 4.57959L21.1505 4.57958L21.2767 4.62093ZM21.2767 4.62093C21.2855 4.62479 21.2941 4.62912 21.3045 4.63433L21.3078 4.63594L21.3079 4.63599L21.3115 4.63783C21.3207 4.64241 21.3283 4.64623 21.3357 4.6504M21.2767 4.62093L21.3357 4.6504M2.98508 4.50076L2.98622 4.56325C2.99035 4.56317 2.9943 4.56288 2.99643 4.56273C2.99664 4.56271 2.99684 4.5627 2.99701 4.56268L2.99945 4.56252C2.99982 4.5625 2.99999 4.5625 3.00002 4.5625H21L21.0035 4.5627L21.0042 4.56275C21.0064 4.56291 21.0104 4.5632 21.0144 4.56329L21.0145 4.5633C21.0262 4.56354 21.0381 4.56422 21.0506 4.56513L21.0507 4.56514C21.0625 4.56599 21.0732 4.56687 21.0835 4.56812L21.0835 4.56812C21.0938 4.56936 21.1043 4.57109 21.1161 4.57311L2.66462 4.65017C2.67141 4.64637 2.67832 4.6429 2.68676 4.63868C2.68824 4.63794 2.68977 4.63717 2.69136 4.63637L2.69144 4.63634L2.69156 4.63628C2.70355 4.63023 2.71366 4.62514 2.72376 4.6207C2.73154 4.6173 2.73945 4.61426 2.74894 4.61062C2.7505 4.61002 2.7521 4.60941 2.75374 4.60878L2.75525 4.6082C2.76657 4.60385 2.77609 4.6002 2.78561 4.59708L2.78561 4.59708C2.79461 4.59413 2.80386 4.59159 2.8149 4.58855C2.81589 4.58828 2.81689 4.58801 2.81791 4.58773L2.81859 4.58754C2.83033 4.58433 2.84022 4.58163 2.85008 4.57943L2.85018 4.57941C2.85984 4.57724 2.86989 4.5755 2.88187 4.57343L2.88273 4.57329L2.88278 4.57328C2.8951 4.57114 2.90628 4.56931 2.91717 4.56801L2.9172 4.568C2.92689 4.56684 2.93693 4.56603 2.94841 4.56516L2.94365 4.50284M2.98508 4.50076L2.98632 4.56324C2.97398 4.56349 2.96135 4.56419 2.94831 4.56516L2.94365 4.50284M2.98508 4.50076C2.97125 4.50103 2.95743 4.50181 2.94365 4.50284M2.98508 4.50076C2.98741 4.50071 2.98971 4.50055 2.992 4.50038C2.99465 4.50019 2.9973 4.5 3 4.5H21C21.0029 4.5 21.0058 4.50021 21.0087 4.50041C21.0111 4.50058 21.0134 4.50075 21.0158 4.50081C21.029 4.50108 21.0421 4.50184 21.0552 4.5028C21.0672 4.50367 21.0791 4.50463 21.091 4.50607L2.90973 4.50595M2.94365 4.50284C2.93225 4.50371 2.92094 4.5046 2.90973 4.50595M2.90973 4.50595C2.89714 4.50746 2.88464 4.50952 2.8721 4.5117L2.87058 4.51196L2.90973 4.50595ZM21.3357 4.6504C21.3455 4.65585 21.3552 4.66196 21.3665 4.66915L21.3357 4.6504ZM2.54063 4.65804C2.53139 4.66521 2.52223 4.67239 2.51335 4.67999L2.54063 4.65804ZM21.5974 4.9106C21.6025 4.91973 21.6075 4.92923 21.6126 4.93923L21.5974 4.9106ZM21.4461 4.72753C21.4541 4.73436 21.462 4.74176 21.4707 4.74997L21.3666 4.66919L21.3692 4.67084C21.378 4.67636 21.3853 4.68099 21.3923 4.68589L21.3924 4.68596C21.4014 4.69223 21.4104 4.69914 21.4207 4.70719L21.4208 4.70723C21.4301 4.71443 21.4383 4.72091 21.4461 4.72753ZM3.79223 6.90889L3.6875 6.81289V6.95496V17.0451V17.1871L3.79223 17.0911L9.29592 12.0461L9.34619 12L9.29592 11.954L3.79223 6.90889ZM4.88596 17.9539L4.76752 18.0625H4.92819H19.0719H19.2325L19.1141 17.9539L13.6786 12.9714L13.6364 12.9327L13.5941 12.9714L12.4646 14.0068C12.3378 14.123 12.172 14.1875 12 14.1875C11.828 14.1875 11.6622 14.123 11.5354 14.0068L10.4059 12.9714L10.3637 12.9327L10.3214 12.9714L4.88596 17.9539ZM14.7041 11.9539L14.6538 12L14.7041 12.0461L20.2086 17.0918L20.3134 17.1879L20.3134 17.0458L20.3126 6.95482L20.3126 6.81276L20.2079 6.90875L14.7041 11.9539Z" fill="white" stroke="white" stroke-width="0.125"/>
</svg>
