<svg width="162" height="40" viewBox="0 0 162 40" fill="none" xmlns="http://www.w3.org/2000/svg">
<g clip-path="url(#clip0)">
<path d="M54.0899 12.24L59.3499 19.61L64.4399 12.24H67.6799V27.76H64.4999V17.2H64.3899L59.8099 23.8H58.6199L53.9999 17.18H53.8999V27.76H50.8999V12.24H54.0899Z" fill="#00A193"/>
<path d="M82.2402 12.24L89.1302 27.76H85.7902L84.5202 25H76.7302L75.4802 27.77H72.2002L79.0802 12.25L82.2402 12.24ZM77.9202 22.17H83.3502L80.6902 15.42H80.4502L77.9202 22.17Z" fill="#00A193"/>
<path d="M106.35 21.06C105.81 21.8973 105.048 22.5687 104.15 23L107.08 27.76H103.51L101.05 23.65H96.7501V27.76H93.6201V12.24H101C101.825 12.198 102.65 12.3254 103.424 12.6143C104.198 12.9032 104.904 13.3476 105.5 13.92C106.431 14.8378 107.02 16.0457 107.171 17.344C107.322 18.6423 107.025 19.9532 106.33 21.06H106.35ZM96.7501 20.83H101C101.43 20.8597 101.862 20.7985 102.267 20.6503C102.672 20.5021 103.041 20.2703 103.35 19.97C103.855 19.4271 104.135 18.7117 104.13 17.97C104.155 17.2358 103.897 16.52 103.41 15.97C103.102 15.6392 102.721 15.3848 102.298 15.2268C101.874 15.0689 101.42 15.0118 100.97 15.06H96.7501V20.83Z" fill="#00A193"/>
<path d="M115 12.24V18.08H117.84L121.84 12.24H125.46L120.46 19.35L125.77 27.76H122.2L117.85 20.85H115V27.76H111.89V12.24H115Z" fill="#00A193"/>
<path d="M130.2 12.24H142.36V15.08H133.36V18.24H141.43V21.06H133.36V24.94H142.75V27.76H130.2V12.24Z" fill="#00A193"/>
<path d="M147 12.24H161.21V15H155.62V27.76H152.62V15H147V12.24Z" fill="#00A193"/>
<path d="M36.1 0H3.9C2.86647 0.00263994 1.87602 0.414379 1.1452 1.1452C0.414379 1.87602 0.00263994 2.86647 0 3.9L0 36.1C0.00263994 37.1335 0.414379 38.124 1.1452 38.8548C1.87602 39.5856 2.86647 39.9974 3.9 40H36.1C37.1335 39.9974 38.124 39.5856 38.8548 38.8548C39.5856 38.124 39.9974 37.1335 40 36.1V3.9C39.9974 2.86647 39.5856 1.87602 38.8548 1.1452C38.124 0.414379 37.1335 0.00263994 36.1 0V0ZM8 29.15L16.41 16.45H10.19L13.63 10.85H24.77L20.24 17.85L12.92 29.15H8ZM29.86 23.55L26.42 29.15H15.23L19.76 22.15L27.08 10.84H32.08L23.67 23.54L29.86 23.55Z" fill="#00A193"/>
</g>
<defs>
<clipPath id="clip0">
<rect width="161.17" height="40" fill="white"/>
</clipPath>
</defs>
</svg>
