<svg width="89" height="30" viewBox="0 0 89 30" fill="none" xmlns="http://www.w3.org/2000/svg">
<path d="M27.4925 0H3.34248C2.56733 0.00197996 1.8245 0.310785 1.27638 0.8589C0.728265 1.40702 0.41946 2.14985 0.41748 2.925L0.41748 27.075C0.41946 27.8501 0.728265 28.593 1.27638 29.1411C1.8245 29.6892 2.56733 29.998 3.34248 30H27.4925C28.2676 29.998 29.0105 29.6892 29.5586 29.1411C30.1067 28.593 30.4155 27.8501 30.4175 27.075V2.925C30.4155 2.14985 30.1067 1.40702 29.5586 0.8589C29.0105 0.310785 28.2676 0.00197996 27.4925 0V0ZM6.41748 21.8625L12.725 12.3375H8.05998L10.64 8.1375H18.995L15.5975 13.3875L10.1075 21.8625H6.41748ZM22.8125 17.6625L20.2325 21.8625H11.84L15.2375 16.6125L20.7275 8.13H24.4775L18.17 17.655L22.8125 17.6625Z" fill="#00A193"/>
<path d="M47.0415 6.95001C48.4368 6.95001 49.6481 7.18001 50.6755 7.64001C51.7181 8.10001 52.5155 8.75935 53.0675 9.61801C53.6195 10.4767 53.8955 11.4963 53.8955 12.677C53.8955 13.8423 53.6195 14.862 53.0675 15.736C52.5155 16.5947 51.7181 17.254 50.6755 17.714C49.6481 18.174 48.4368 18.404 47.0415 18.404H43.4075V23.05H40.4175V6.95001H47.0415ZM46.9035 15.874C48.2068 15.874 49.1958 15.598 49.8705 15.046C50.5451 14.494 50.8825 13.7043 50.8825 12.677C50.8825 11.6497 50.5451 10.86 49.8705 10.308C49.1958 9.75601 48.2068 9.48001 46.9035 9.48001H43.4075V15.874H46.9035Z" fill="#00A193"/>
<path d="M68.0148 19.324H59.9648L58.3778 23.05H55.2958L62.5408 6.95001H65.4848L72.7528 23.05H69.6248L68.0148 19.324ZM67.0258 16.978L63.9898 9.94001L60.9768 16.978H67.0258Z" fill="#00A193"/>
<path d="M82.2805 17.369V23.05H79.2905V17.415L72.9655 6.95001H76.1625L80.8775 14.793L85.6385 6.95001H88.5825L82.2805 17.369Z" fill="#00A193"/>
</svg>
