<svg width="33" height="32" viewBox="0 0 33 32" fill="none" xmlns="http://www.w3.org/2000/svg">
<circle r="11.3019" transform="matrix(0.706374 -0.707839 0.706374 0.707839 16.7658 16.0009)" fill="#009C8E"/>
<path d="M20.9802 15.2023H17.751V11.9665C17.751 11.535 17.3743 11.1575 16.9438 11.1575C16.5132 11.1575 16.1365 11.535 16.1365 11.9665V15.2023H12.9074C12.4768 15.2023 12.1001 15.5798 12.1001 16.0113C12.1001 16.4427 12.4768 16.8202 12.9074 16.8202H16.1365V20.056C16.1365 20.4875 16.5132 20.865 16.9438 20.865C17.3743 20.865 17.751 20.4875 17.751 20.056V16.8202H20.9802C21.4107 16.8202 21.7874 16.4427 21.7874 16.0113C21.7874 15.5798 21.4107 15.2023 20.9802 15.2023Z" fill="white"/>
</svg>
