<svg width="20" height="20" viewBox="0 0 20 20" fill="none" xmlns="http://www.w3.org/2000/svg">
<path d="M10 0.25C8.07164 0.25 6.18657 0.821828 4.58319 1.89317C2.97982 2.96451 1.73013 4.48726 0.992179 6.26884C0.254225 8.05042 0.061142 10.0108 0.437348 11.9021C0.813554 13.7934 1.74215 15.5307 3.10571 16.8943C4.46928 18.2579 6.20656 19.1865 8.09787 19.5627C9.98919 19.9389 11.9496 19.7458 13.7312 19.0078C15.5127 18.2699 17.0355 17.0202 18.1068 15.4168C19.1782 13.8134 19.75 11.9284 19.75 10C19.7471 7.41504 18.7189 4.93679 16.8911 3.10894C15.0632 1.28109 12.585 0.252926 10 0.25ZM10.0001 16C9.77755 16 9.56004 15.9341 9.37504 15.8104C9.19003 15.6868 9.04584 15.5111 8.96069 15.3056C8.87554 15.1 8.85326 14.8738 8.89667 14.6556C8.94008 14.4373 9.04723 14.2369 9.20456 14.0795C9.36189 13.9222 9.56235 13.8151 9.78058 13.7717C9.99881 13.7282 10.225 13.7505 10.4306 13.8357C10.6361 13.9208 10.8118 14.065 10.9355 14.25C11.0591 14.435 11.1251 14.6525 11.1251 14.875C11.1251 15.1734 11.0065 15.4596 10.7955 15.6705C10.5846 15.8815 10.2984 16 10.0001 16ZM10.75 11.4165V11.5005C10.75 11.6994 10.671 11.8901 10.5303 12.0308C10.3897 12.1714 10.1989 12.2505 10 12.2505C9.8011 12.2505 9.61033 12.1714 9.46968 12.0308C9.32903 11.8901 9.25001 11.6994 9.25001 11.5005V10.7505C9.25002 10.5515 9.32904 10.3608 9.46969 10.2201C9.61034 10.0795 9.8011 10.0005 10 10.0005C10.3708 10.0005 10.7334 9.89049 11.0417 9.68446C11.35 9.47844 11.5904 9.1856 11.7323 8.84299C11.8742 8.50038 11.9113 8.12338 11.839 7.75966C11.7666 7.39595 11.5881 7.06186 11.3258 6.79963C11.0636 6.53741 10.7295 6.35883 10.3658 6.28649C10.0021 6.21414 9.62509 6.25127 9.28248 6.39318C8.93987 6.5351 8.64703 6.77542 8.441 7.08376C8.23498 7.39211 8.12501 7.75462 8.12501 8.12546C8.12501 8.32437 8.04599 8.51513 7.90534 8.65579C7.76469 8.79644 7.57392 8.87546 7.37501 8.87546C7.1761 8.87546 6.98533 8.79644 6.84468 8.65579C6.70403 8.51513 6.62501 8.32437 6.62501 8.12546C6.62509 7.49014 6.80449 6.86774 7.14259 6.32985C7.48068 5.79196 7.96373 5.36042 8.53618 5.08487C9.10863 4.80931 9.74723 4.70093 10.3785 4.77219C11.0099 4.84344 11.6082 5.09144 12.1049 5.48767C12.6015 5.88389 12.9762 6.41225 13.1859 7.01196C13.3956 7.61168 13.4317 8.25841 13.2902 8.87776C13.1487 9.49712 12.8352 10.0639 12.3858 10.5131C11.9364 10.9622 11.3694 11.2753 10.75 11.4165Z" fill="#D4DBE1"/>
</svg>
