<svg width="340" height="339" viewBox="0 0 340 339" fill="none" xmlns="http://www.w3.org/2000/svg">
<g filter="url(#filter0_d)">
<circle cx="170.281" cy="169.427" r="134.689" stroke="white" stroke-width="19.954"/>
</g>
<circle cx="170.281" cy="169.427" r="124.712" fill="#DBD9DC"/>
<path d="M169.818 44.7154C189.708 44.6416 209.327 49.3263 227.038 58.3785C244.75 67.4307 260.039 80.5879 271.629 96.752C283.22 112.916 290.777 131.618 293.668 151.297C296.56 170.976 294.703 191.061 288.251 209.876C281.8 228.691 270.942 245.69 256.584 259.455C242.225 273.219 224.783 283.35 205.712 289C186.641 294.651 166.495 295.659 146.956 291.939C127.417 288.219 109.051 279.879 93.3905 267.616L170.281 169.427L169.818 44.7154Z" fill="url(#paint0_linear)"/>
<g filter="url(#filter1_d)">
<circle cx="170.199" cy="169.427" r="106.006" transform="rotate(60 170.199 169.427)" fill="url(#paint1_linear)"/>
</g>
<rect x="168.41" y="45.3382" width="3.74137" height="17.4597" rx="1.87069" fill="#009C8E" stroke="white" stroke-width="1.24712"/>
<rect x="94.8945" y="268.166" width="3.74137" height="17.5546" rx="1.87069" transform="rotate(-137.748 94.8945 268.166)" fill="#106860" stroke="white" stroke-width="1.24712"/>
<defs>
<filter id="filter0_d" x="20.6258" y="21.0194" width="299.31" height="299.31" filterUnits="userSpaceOnUse" color-interpolation-filters="sRGB">
<feFlood flood-opacity="0" result="BackgroundImageFix"/>
<feColorMatrix in="SourceAlpha" type="matrix" values="0 0 0 0 0 0 0 0 0 0 0 0 0 0 0 0 0 0 127 0" result="hardAlpha"/>
<feOffset dy="1.24712"/>
<feGaussianBlur stdDeviation="2.49425"/>
<feColorMatrix type="matrix" values="0 0 0 0 0.25098 0 0 0 0 0.505882 0 0 0 0 0.960784 0 0 0 0.15 0"/>
<feBlend mode="normal" in2="BackgroundImageFix" result="effect1_dropShadow"/>
<feBlend mode="normal" in="SourceGraphic" in2="effect1_dropShadow" result="shape"/>
</filter>
<filter id="filter1_d" x="52.9519" y="55.9211" width="234.495" height="234.495" filterUnits="userSpaceOnUse" color-interpolation-filters="sRGB">
<feFlood flood-opacity="0" result="BackgroundImageFix"/>
<feColorMatrix in="SourceAlpha" type="matrix" values="0 0 0 0 0 0 0 0 0 0 0 0 0 0 0 0 0 0 127 0" result="hardAlpha"/>
<feOffset dy="3.74137"/>
<feGaussianBlur stdDeviation="5.61206"/>
<feColorMatrix type="matrix" values="0 0 0 0 0 0 0 0 0 0 0 0 0 0 0 0 0 0 0.25 0"/>
<feBlend mode="normal" in2="BackgroundImageFix" result="effect1_dropShadow"/>
<feBlend mode="normal" in="SourceGraphic" in2="effect1_dropShadow" result="shape"/>
</filter>
<linearGradient id="paint0_linear" x1="61.0681" y1="109.213" x2="212.245" y2="26.4201" gradientUnits="userSpaceOnUse">
<stop stop-color="#70E6DB"/>
<stop offset="1" stop-color="#008D80"/>
</linearGradient>
<linearGradient id="paint1_linear" x1="115.949" y1="51.5739" x2="225.696" y2="287.28" gradientUnits="userSpaceOnUse">
<stop stop-color="white"/>
<stop offset="1" stop-color="#F2F1F2"/>
</linearGradient>
</defs>
</svg>
