<svg width="339" height="339" viewBox="0 0 339 339" fill="none" xmlns="http://www.w3.org/2000/svg">
<g filter="url(#filter0_d)">
<circle cx="169.427" cy="169.427" r="134.689" stroke="white" stroke-width="19.954"/>
</g>
<circle cx="169.427" cy="169.427" r="124.712" fill="#DBD9DC"/>
<path d="M53.0058 214.14C45.7071 195.137 43.1714 174.635 45.62 154.426C48.0686 134.217 55.4271 114.914 67.053 98.2037C78.6789 81.493 94.2187 67.8823 112.316 58.5599C130.413 49.2376 150.517 44.487 170.872 44.7229L169.427 169.427L53.0058 214.14Z" fill="url(#paint0_linear)"/>
<g filter="url(#filter1_d)">
<circle cx="169.199" cy="169.427" r="106.006" transform="rotate(60 169.199 169.427)" fill="url(#paint1_linear)"/>
</g>
<rect x="167.556" y="45.3382" width="3.74137" height="17.4597" rx="1.87069" fill="#009C8E" stroke="white" stroke-width="1.24712"/>
<rect x="54.2076" y="215.639" width="3.74137" height="17.5546" rx="1.87069" transform="rotate(-109 54.2076 215.639)" fill="#106860" stroke="white" stroke-width="1.24712"/>
<defs>
<filter id="filter0_d" x="19.7718" y="21.0194" width="299.31" height="299.31" filterUnits="userSpaceOnUse" color-interpolation-filters="sRGB">
<feFlood flood-opacity="0" result="BackgroundImageFix"/>
<feColorMatrix in="SourceAlpha" type="matrix" values="0 0 0 0 0 0 0 0 0 0 0 0 0 0 0 0 0 0 127 0" result="hardAlpha"/>
<feOffset dy="1.24712"/>
<feGaussianBlur stdDeviation="2.49425"/>
<feColorMatrix type="matrix" values="0 0 0 0 0.25098 0 0 0 0 0.505882 0 0 0 0 0.960784 0 0 0 0.15 0"/>
<feBlend mode="normal" in2="BackgroundImageFix" result="effect1_dropShadow"/>
<feBlend mode="normal" in="SourceGraphic" in2="effect1_dropShadow" result="shape"/>
</filter>
<filter id="filter1_d" x="51.9514" y="55.9211" width="234.495" height="234.495" filterUnits="userSpaceOnUse" color-interpolation-filters="sRGB">
<feFlood flood-opacity="0" result="BackgroundImageFix"/>
<feColorMatrix in="SourceAlpha" type="matrix" values="0 0 0 0 0 0 0 0 0 0 0 0 0 0 0 0 0 0 127 0" result="hardAlpha"/>
<feOffset dy="3.74137"/>
<feGaussianBlur stdDeviation="5.61206"/>
<feColorMatrix type="matrix" values="0 0 0 0 0 0 0 0 0 0 0 0 0 0 0 0 0 0 0.25 0"/>
<feBlend mode="normal" in2="BackgroundImageFix" result="effect1_dropShadow"/>
<feBlend mode="normal" in="SourceGraphic" in2="effect1_dropShadow" result="shape"/>
</filter>
<linearGradient id="paint0_linear" x1="60.2141" y1="109.213" x2="211.391" y2="26.4201" gradientUnits="userSpaceOnUse">
<stop stop-color="#70E6DB"/>
<stop offset="1" stop-color="#008D80"/>
</linearGradient>
<linearGradient id="paint1_linear" x1="114.949" y1="51.5739" x2="224.696" y2="287.28" gradientUnits="userSpaceOnUse">
<stop stop-color="white"/>
<stop offset="1" stop-color="#F2F1F2"/>
</linearGradient>
</defs>
</svg>
