<svg width="32" height="32" viewBox="0 0 32 32" fill="none" xmlns="http://www.w3.org/2000/svg">
<path d="M28.9068 3.96705C28.6313 3.72912 28.2959 3.5711 27.9369 3.51012C27.578 3.44914 27.2092 3.48752 26.8706 3.6211L3.80092 12.6842C3.39881 12.8422 3.05866 13.1261 2.83137 13.4935C2.60409 13.8609 2.50188 14.2921 2.54005 14.7224C2.57822 15.1527 2.75471 15.5591 3.04311 15.8808C3.33152 16.2025 3.71633 16.4221 4.13997 16.5068L9.99983 17.6788V24.9981C9.99949 25.3938 10.1166 25.7807 10.3363 26.1098C10.556 26.4389 10.8684 26.6954 11.234 26.8469C11.5996 26.9983 12.0019 27.0378 12.39 26.9605C12.7781 26.8831 13.1344 26.6923 13.414 26.4122L16.6569 23.1694L21.5789 27.5007C21.9413 27.8225 22.4089 28.0005 22.8936 28.0011C23.1042 28.0009 23.3136 27.9677 23.514 27.9027C23.8445 27.7979 24.1418 27.6082 24.3762 27.3526C24.6105 27.097 24.7737 26.7844 24.8496 26.4461L29.5513 5.92945C29.6332 5.57468 29.6164 5.20428 29.5028 4.85836C29.3892 4.51244 29.1831 4.20421 28.9068 3.96705ZM22.9001 25.9993L12.6011 16.936L27.4317 6.22517L22.9001 25.9993Z" fill="#121F3E"/>
</svg>
