<svg width="24" height="25" viewBox="0 0 24 25" fill="none" xmlns="http://www.w3.org/2000/svg">
<path d="M21.2659 21.498H2.73288C2.37562 21.498 2.04551 21.3074 1.86688 20.998C1.68825 20.6886 1.68825 20.3074 1.86688 19.998L11.1329 3.99799C11.3117 3.6891 11.6415 3.4989 11.9984 3.4989C12.3553 3.4989 12.6851 3.6891 12.8639 3.99799L22.1299 19.998C22.3084 20.3072 22.3085 20.6882 22.1301 20.9975C21.9518 21.3069 21.622 21.4976 21.2649 21.498H21.2659ZM10.9999 16.498V18.498H11.9329H11.9979H12.0629H12.9979V16.498H10.9999ZM10.9999 9.49799V14.498H12.9999V9.49799H10.9999Z" fill="#BA0000"/>
</svg>
